<!-- SPDX-License-Identifier: LicenseRef-logo.svg-NOREDIST -->

<svg width="304" height="249" viewBox="0 0 304 249" fill="none" xmlns="http://www.w3.org/2000/svg">
<g clip-path="url(#clip0_2503_219)">
<path d="M85.776 26.0249C134.797 49.5136 186.167 39.8913 219.828 29.2821C220.799 28.9762 221.294 27.9774 220.988 26.9798L215.516 9.12955C215.148 7.92891 213.783 7.26132 212.651 7.71038C172.142 23.773 119.647 17.0469 91.7941 11.3453C90.8893 11.1601 90.0327 11.5802 89.6754 12.3708L84.703 23.3734C84.2672 24.3377 84.7475 25.532 85.776 26.0249Z" fill="#2B4122"/>
<path d="M247.861 117.709C276.57 134.284 288.575 173.791 272 202.5C255.425 231.209 213.245 243.964 184.537 227.39C155.828 210.815 142.032 177.363 158.607 148.655C167.91 132.541 181.717 129.339 195.788 125.071C211.119 120.42 232.891 109.066 247.861 117.709Z" fill="#862D2D"/>
<path d="M143.653 157.968C144.113 191.114 117.647 222.04 84.5 222.5C51.3534 222.96 17.4771 192.872 17.0171 159.725C16.5571 126.579 38.2284 97.6012 71.375 97.1412C89.9803 96.883 99.799 107.104 110.669 117.006C122.514 127.795 143.413 140.684 143.653 157.968Z" fill="#862D2D"/>
<path d="M137.633 159.876C137.633 189.88 113.309 214.204 83.3044 214.204C53.2997 214.204 23 189.88 23 159.876C23 129.871 42.9773 103.918 72.982 103.918C89.8237 103.918 98.5817 113.291 108.295 122.389C118.879 132.302 137.633 144.23 137.633 159.876Z" fill="url(#paint0_linear_2503_219)"/>
<path d="M39.4665 134.49C42.22 128.101 50.9855 114.878 64.0196 113.104C77.0537 111.33 53.0817 126.622 39.4665 134.49Z" fill="#ECC8C8" stroke="#ECC8C8" stroke-width="4.34626" stroke-linecap="round" stroke-linejoin="round"/>
<path d="M31.6319 143.746C31.6999 142.154 31.1802 141.643 32.7169 141.724C34.2535 141.806 32.9804 142.222 31.6319 143.746Z" fill="#ECC8C8" stroke="#ECC8C8" stroke-width="4.34626" stroke-linecap="round" stroke-linejoin="round"/>
<path d="M86.0002 120C96.5002 145.5 114.126 144.758 113.423 142.359C112.852 140.409 103.835 138.059 98.5 132.5C90.5382 124.204 85.4492 113.058 86.0002 120Z" fill="#CA4747"/>
<path d="M113.423 142.359L112.463 142.64L112.463 142.64L113.423 142.359ZM86.0002 120L85.0033 120.079C85.0115 120.183 85.0359 120.284 85.0755 120.381L86.0002 120ZM98.5 132.5L97.7785 133.192L97.7785 133.192L98.5 132.5ZM113.423 142.359L112.463 142.64C112.415 142.474 112.46 142.303 112.531 142.204C112.576 142.14 112.588 142.165 112.459 142.224C112.205 142.341 111.693 142.459 110.906 142.463C109.363 142.471 107.046 142.036 104.345 140.74C98.9696 138.16 92.0956 132.177 86.9248 119.619L86.0002 120L85.0755 120.381C90.4048 133.323 97.5936 139.719 103.48 142.543C106.41 143.949 109.024 144.473 110.916 144.463C111.847 144.459 112.679 144.325 113.295 144.041C113.601 143.9 113.93 143.688 114.162 143.362C114.418 143.001 114.519 142.543 114.383 142.078L113.423 142.359ZM86.0002 120L86.997 119.921C86.9283 119.055 86.9672 118.636 87.0112 118.488C87.0324 118.417 87.0039 118.586 86.7878 118.718C86.5273 118.877 86.2912 118.81 86.2472 118.793C86.2198 118.783 86.2671 118.797 86.4006 118.911C86.5236 119.017 86.6787 119.171 86.8683 119.383C87.2479 119.808 87.7089 120.398 88.2554 121.133C90.4153 124.036 93.7401 128.985 97.7785 133.192L98.5 132.5L99.2215 131.808C95.2981 127.72 92.0975 122.947 89.8602 119.939C89.3074 119.196 88.8021 118.546 88.3593 118.05C88.1376 117.803 87.9174 117.577 87.7024 117.393C87.498 117.218 87.2446 117.032 86.9552 116.923C86.6492 116.807 86.1898 116.74 85.746 117.011C85.3464 117.255 85.1746 117.647 85.0939 117.919C84.9339 118.458 84.9343 119.21 85.0033 120.079L86.0002 120ZM98.5 132.5L97.7785 133.192C100.574 136.105 104.298 138.146 107.294 139.674C108.823 140.454 110.122 141.08 111.101 141.644C111.588 141.924 111.949 142.163 112.194 142.369C112.461 142.593 112.477 142.685 112.463 142.64L113.423 142.359L114.383 142.078C114.227 141.545 113.836 141.137 113.48 140.838C113.102 140.52 112.623 140.212 112.1 139.911C111.061 139.313 109.666 138.638 108.202 137.892C105.213 136.367 101.761 134.454 99.2215 131.808L98.5 132.5Z" fill="#CA4747"/>
<path d="M122.925 135C133.791 204.54 71.5 221.5 34 190C38.8895 194.346 43.9154 201.61 50.1253 205.083C90.073 227.43 122.506 205.702 133.791 181.722C137.929 170.859 139.121 157.968 135.964 150.212C132.49 141.677 124.555 136.087 122.925 135Z" fill="url(#paint1_linear_2503_219)"/>
<path d="M36 191.5C65.5 220 136.5 205 122 135" stroke="#D25953" stroke-width="2" stroke-linecap="round"/>
<path d="M244.455 122.946C270.439 137.948 282.002 175.515 267 201.5C251.998 227.485 213.123 237.223 187.138 222.221C161.154 207.218 148.666 176.941 163.668 150.956C172.089 136.371 184.586 133.473 197.322 129.61C211.199 125.4 230.905 115.123 244.455 122.946Z" fill="url(#paint2_linear_2503_219)"/>
<path d="M192.716 145.594C220.05 149.251 228.22 133.616 225.79 133.025C223.817 132.545 216.481 137.659 209 139.5C197.835 142.247 186.428 142.601 192.716 145.594Z" fill="#CA4747"/>
<path d="M225.79 133.025L225.554 133.996L225.554 133.996L225.79 133.025ZM192.716 145.594L192.286 146.497C192.38 146.542 192.48 146.572 192.583 146.586L192.716 145.594ZM209 139.5L209.239 140.471L209.239 140.471L209 139.5ZM225.79 133.025L225.554 133.996C225.386 133.956 225.261 133.831 225.211 133.72C225.178 133.649 225.205 133.651 225.192 133.792C225.166 134.071 225.013 134.574 224.623 135.257C223.858 136.597 222.323 138.386 219.85 140.077C214.928 143.443 206.309 146.404 192.848 144.603L192.716 145.594L192.583 146.586C206.456 148.442 215.589 145.413 220.979 141.728C223.661 139.894 225.422 137.891 226.36 136.248C226.821 135.439 227.121 134.652 227.184 133.977C227.215 133.641 227.195 133.25 227.029 132.887C226.844 132.484 226.498 132.168 226.027 132.053L225.79 133.025ZM192.716 145.594L193.146 144.692C192.38 144.327 192.027 144.064 191.9 143.921C191.846 143.86 191.902 143.897 191.919 144.027C191.939 144.185 191.881 144.306 191.848 144.352C191.841 144.361 191.975 144.219 192.521 144.008C193.014 143.818 193.69 143.627 194.54 143.429C196.24 143.033 198.48 142.644 201.041 142.174C203.586 141.707 206.417 141.165 209.239 140.471L209 139.5L208.761 138.529C206 139.208 203.219 139.741 200.681 140.207C198.159 140.669 195.847 141.071 194.086 141.481C193.206 141.686 192.424 141.902 191.801 142.142C191.233 142.361 190.594 142.673 190.227 143.179C190.014 143.474 189.88 143.854 189.935 144.284C189.988 144.687 190.191 145.009 190.405 145.25C190.814 145.71 191.48 146.113 192.286 146.497L192.716 145.594ZM209 139.5L209.239 140.471C213.094 139.523 216.885 137.739 219.894 136.293C221.418 135.561 222.717 134.927 223.764 134.501C224.285 134.289 224.71 134.142 225.044 134.062C225.209 134.022 225.336 134.002 225.429 133.996C225.525 133.989 225.56 133.998 225.554 133.996L225.79 133.025L226.027 132.053C225.545 131.936 225.025 132.009 224.575 132.118C224.1 132.232 223.57 132.421 223.009 132.649C221.891 133.104 220.519 133.774 219.028 134.491C216.005 135.943 212.388 137.637 208.761 138.529L209 139.5Z" fill="#CA4747"/>
<path d="M185.516 200.776C180.057 196.462 169.554 184.573 171.214 171.524C172.874 158.475 181.44 185.588 185.516 200.776Z" fill="#ECC8C8" stroke="#ECC8C8" stroke-width="4.34626" stroke-linecap="round" stroke-linejoin="round"/>
<path d="M219 123.5C282 127 262.869 212.144 221.5 229C224.869 229 234 228 245 222.5C284.326 199.078 279.483 159.558 264.358 137.796C257.02 128.78 246.451 121.302 238.156 120.159C229.028 118.9 220.756 122.632 219 123.5Z" fill="url(#paint3_linear_2503_219)"/>
<path d="M221.5 228C253 217.5 289 137 219.5 123" stroke="#D25953" stroke-width="2" stroke-linecap="round"/>
<path d="M191.619 208.662C193.105 209.872 193.712 210.389 193.267 209.965C192.822 209.54 192.734 209.519 191.619 208.662Z" fill="#ECC8C8" stroke="#ECC8C8" stroke-width="3" stroke-linecap="round" stroke-linejoin="round"/>
<path d="M144.729 38.4728C147.229 64.5 130 112.5 99.0001 133C141.5 108 146.707 59.063 144.729 38.4728Z" stroke="#2B4123" stroke-width="9" stroke-linecap="round" stroke-linejoin="round"/>
<path d="M150.5 41C184.738 52.7366 213.5 99.4999 206 143.5C207.5 99.4998 180.5 61.5949 150.5 41Z" stroke="#2B4123" stroke-width="7" stroke-linecap="round" stroke-linejoin="round"/>
<path d="M144.152 37.094C147.768 61.3707 135.18 106.065 97.4297 133.255C143.5 105.004 147.774 57.3765 144.152 37.094Z" stroke="url(#paint4_linear_2503_219)" stroke-width="5.43282" stroke-linecap="round" stroke-linejoin="round"/>
<path d="M85.9277 118.586C87.5679 126.406 95.127 142.318 112.242 143.414" stroke="#B23A3A" stroke-width="4" stroke-linecap="round"/>
<path d="M145.761 39.0939C171.086 48.2632 206.08 88.0347 207.152 145.577C210.509 78.0464 167.312 46.0751 145.761 39.0939Z" stroke="url(#paint5_linear_2503_219)" stroke-width="5.43282" stroke-linecap="round" stroke-linejoin="round"/>
<path d="M191.919 145.314C199.555 147.663 217.139 148.747 226.38 134.299" stroke="#B23A3A" stroke-width="4.34626" stroke-linecap="round"/>
<path d="M91.4128 22.2309C132.895 44.8412 190.523 34.1808 214.152 26.0243L209.391 12.6252C175.214 25.3237 118.386 19.4414 94.1599 14.2465L91.4128 22.2309Z" fill="url(#paint6_linear_2503_219)"/>
<path d="M93.7091 14.9984L90.242 22.5712C124.78 40.3752 169.937 39.3375 214.508 25.2029" stroke="#629A4D" stroke-width="2" stroke-linecap="round" stroke-linejoin="round"/>
<g filter="url(#filter0_f_2503_219)">
<path d="M91.6289 22.3887C91.1026 22.1533 90.8414 21.5686 91.0455 21.0828C91.2496 20.597 91.8416 20.3941 92.3679 20.6295L91.6289 22.3887ZM215.191 23.5589L215.637 24.4701C194.93 32.4346 141.023 44.4849 91.6289 22.3887L91.9984 21.5091L92.3679 20.6295C140.991 42.3807 194.256 30.5284 214.745 22.6476L215.191 23.5589Z" fill="#608435"/>
</g>
<path d="M210.304 12.9424L214.892 25.1282" stroke="#C2DE9E" stroke-width="2" stroke-linecap="round"/>
<path d="M93.4846 14.2464C142.328 21.8478 169.71 24.3958 210.27 12.4562" stroke="#C2DE9E" stroke-linecap="round"/>
<path d="M142.41 41.3059C144.691 66.5854 129.486 106.31 97.3634 131.21" stroke="url(#paint7_linear_2503_219)" stroke-linecap="round"/>
<path d="M148.261 42.6737C176.329 55.404 206.795 102.946 203.827 143.48" stroke="url(#paint8_linear_2503_219)" stroke-linecap="round"/>
</g>
<defs>
<filter id="filter0_f_2503_219" x="86.9761" y="16.5315" width="132.661" height="22.4617" filterUnits="userSpaceOnUse" color-interpolation-filters="sRGB">
<feFlood flood-opacity="0" result="BackgroundImageFix"/>
<feBlend mode="normal" in="SourceGraphic" in2="BackgroundImageFix" result="shape"/>
<feGaussianBlur stdDeviation="2" result="effect1_foregroundBlur_2503_219"/>
</filter>
<linearGradient id="paint0_linear_2503_219" x1="85.9771" y1="180.514" x2="22.6688" y2="252.861" gradientUnits="userSpaceOnUse">
<stop stop-color="#E45454"/>
<stop offset="1" stop-color="#777030"/>
</linearGradient>
<linearGradient id="paint1_linear_2503_219" x1="107" y1="162.5" x2="28.5" y2="214" gradientUnits="userSpaceOnUse">
<stop stop-color="#CA4747"/>
<stop offset="1" stop-color="#814332"/>
</linearGradient>
<linearGradient id="paint2_linear_2503_219" x1="239.191" y1="179.554" x2="269.041" y2="273.198" gradientUnits="userSpaceOnUse">
<stop stop-color="#E45454"/>
<stop offset="1" stop-color="#777030"/>
</linearGradient>
<linearGradient id="paint3_linear_2503_219" x1="234.316" y1="151.386" x2="239.666" y2="245.119" gradientUnits="userSpaceOnUse">
<stop stop-color="#CA4747"/>
<stop offset="1" stop-color="#814332"/>
</linearGradient>
<linearGradient id="paint4_linear_2503_219" x1="121.289" y1="37.094" x2="121.289" y2="133.255" gradientUnits="userSpaceOnUse">
<stop stop-color="#5DAD41"/>
<stop offset="0.610577" stop-color="#81872E"/>
<stop offset="1" stop-color="#3D2A12"/>
</linearGradient>
<linearGradient id="paint5_linear_2503_219" x1="130.696" y1="65.1866" x2="222.848" y2="118.391" gradientUnits="userSpaceOnUse">
<stop stop-color="#5DAD41"/>
<stop offset="0.610577" stop-color="#81872E"/>
<stop offset="1" stop-color="#3D2A12"/>
</linearGradient>
<linearGradient id="paint6_linear_2503_219" x1="169.79" y1="16.4081" x2="168.462" y2="46.0598" gradientUnits="userSpaceOnUse">
<stop stop-color="#61A93F"/>
<stop offset="1" stop-color="#CCD452"/>
</linearGradient>
<linearGradient id="paint7_linear_2503_219" x1="148.775" y1="44.9804" x2="98.5833" y2="131.914" gradientUnits="userSpaceOnUse">
<stop stop-color="#DFE082"/>
<stop offset="1" stop-color="#4D4616"/>
</linearGradient>
<linearGradient id="paint8_linear_2503_219" x1="156.094" y1="40.8135" x2="187.164" y2="136.266" gradientUnits="userSpaceOnUse">
<stop stop-color="#DFE082"/>
<stop offset="1" stop-color="#4D4616"/>
</linearGradient>
<clipPath id="clip0_2503_219">
<rect width="249" height="304" fill="white" transform="translate(304) rotate(90)"/>
</clipPath>
</defs>
</svg>
